<svg id="drawingtext" xmlns="http://www.w3.org/2000/svg" viewBox="0 0 814.9 119.04"><defs><style>.cls-1{fill:#00aa92;}.cls-2{fill:#d65000;}</style></defs><title>2</title><g id="ポチと棒なし"><path d="M63.16,107.89a198.17,198.17,0,0,0-1.68,26.52c0,14.63,4,19.91,8.16,19.91,5.88,0,11.88-16.07,11.88-16.07s.48-1.32,1.56-1.32a1.29,1.29,0,0,1,1.44,1.32,7.21,7.21,0,0,1-.36,1.67S76.84,160.8,67,160.8c-7,0-14.16-7.56-14.16-26.39a158.06,158.06,0,0,1,2.28-26.52l.84-4.32c1.32-6,3-10.92,4.92-13.92,1.2-1.92,3.6-3.36,4.92-3.36a1.2,1.2,0,0,1,1.32,1.32c0,.84-1.8,6.24-3.36,15.72Z" transform="translate(-46.84 -74.89)"/><path d="M105.28,150.12c0-12,7.56-24.47,7.56-31.55a2.24,2.24,0,0,0-2.4-2.52c-5.16,0-19.92,25.55-19.92,36.11,0,3.36.24,3.6.24,4.56,0,1.44-2,2.64-3.48,2.64-2,0-6.36-6.24-6.36-29.15,0-39.12,8.76-55.32,16.56-55.32,4.92,0,7.08,3.84,7.08,11.64,0,15.6-11.76,42.24-16,51.24.12,3.83.36,7.07.36,7.07,1.2-6.84,13.8-34.43,24.48-34.43,4.08,0,7,2.76,7,7.68,0,9.12-6.48,20.51-6.48,31.07,0,3.24,1.44,5.28,4.32,5.28,6.48,0,12.36-16.19,12.36-16.19s.48-1.32,1.56-1.32a1.29,1.29,0,0,1,1.44,1.32,7.21,7.21,0,0,1-.36,1.67s-6.72,20.28-18.6,20.28C109.36,160.2,105.28,157,105.28,150.12Zm-16.8-19.07c4.56-11.76,12.36-33.84,12.36-47,0-3.36-1.08-4.92-2.88-4.92-4.44,0-9.48,24.12-9.48,49.44Z" transform="translate(-46.84 -74.89)"/><path d="M129.52,137.17c0-21.12,5.52-28.56,11-28.56,1,0,1.56.48,1.56,1.44,0,1.56-4.2,10-4.2,29.51,0,12.36,2.88,16,6.24,16,6.24,0,12.6-17.27,12.6-17.27s.48-1.32,1.56-1.32a1.29,1.29,0,0,1,1.44,1.32,7.21,7.21,0,0,1-.36,1.67S151.84,161,142.6,161C136.72,161,129.52,156.6,129.52,137.17Z" transform="translate(-46.84 -74.89)"/><path d="M160,106.93c0-4.2,2.76-7.44,5.52-7.44,2.28,0,4.56,1.56,4.56,5.88,0,3.48-1.68,7.8-2.52,10.56,0,7.2,14.64,17.52,14.64,29.15,0,9.72-9.12,14.64-16.2,14.64-9.72,0-13.92-8-13.92-14.76a6.71,6.71,0,0,1,4.68-6.71c1.08-2.88,4.8-16.44,5-21.72C160.36,111.73,160,110.53,160,106.93Zm-.72,33.24c0,4.43-1.32,5.39-1.32,8.51,0,2.76,2,7.08,7,7.08,5.52,0,7.8-4.44,7.8-10.92s-7.32-21.23-8.4-22.31C163.12,130,159.64,139.21,159.28,140.17Z" transform="translate(-46.84 -74.89)"/><path d="M214.12,137.17c0-21.12,5.52-28.56,11-28.56,1,0,1.56.48,1.56,1.44,0,1.56-4.2,10-4.2,29.51,0,12.36,2.88,16,6.24,16,6.24,0,12.6-17.27,12.6-17.27s.48-1.32,1.56-1.32a1.29,1.29,0,0,1,1.44,1.32,7.21,7.21,0,0,1-.36,1.67S236.44,161,227.2,161C221.32,161,214.12,156.6,214.12,137.17Z" transform="translate(-46.84 -74.89)"/><path d="M244.6,106.93c0-4.2,2.76-7.44,5.52-7.44,2.28,0,4.56,1.56,4.56,5.88,0,3.48-1.68,7.8-2.52,10.56,0,7.2,14.64,17.52,14.64,29.15,0,9.72-9.12,14.64-16.2,14.64-9.72,0-13.92-8-13.92-14.76a6.71,6.71,0,0,1,4.68-6.71c1.08-2.88,4.8-16.44,5-21.72C245,111.73,244.6,110.53,244.6,106.93Zm-.72,33.24c0,4.43-1.32,5.39-1.32,8.51,0,2.76,2,7.08,7,7.08,5.52,0,7.8-4.44,7.8-10.92s-7.32-21.23-8.4-22.31C247.72,130,244.24,139.21,243.88,140.17Z" transform="translate(-46.84 -74.89)"/><path d="M308.92,104.29c0,1.2-3.24,4.92-3.24,23.76,0,2.76.12,5.4.36,8,2.52-7.55,5.4-14.51,8.52-19.67,3.36-5.4,6.48-6.84,9.6-6.84,8.63,0,15.11,9.72,15.11,28.8,0,16.07-8,22.79-16.07,22.79a13.33,13.33,0,0,1-10.44-4.92,2.32,2.32,0,0,1-.72-1.44,1.44,1.44,0,0,1,1.32-1.44c.48,0,.72.12,1.44.84a10,10,0,0,0,6.72,3c5.88,0,8.27-5.76,8.27-19.07,0-14-2.15-22.32-7.19-22.32S311.92,130.33,307.36,146C309.16,157.32,312,167.4,312,178s-5.76,16-10,16c-4.68,0-6.6-4.56-6.6-9.36,0-4.56,2-17.4,5.52-31.2a180.11,180.11,0,0,1-1.8-24.23c0-19.2,6.36-26.4,8.28-26.4A1.57,1.57,0,0,1,308.92,104.29Zm-6.36,60.23c-2.16,9.24-3.36,16.8-3.36,19.8,0,4.08,1,5.88,2.52,5.88s2.4-1.68,2.4-4.8A160.74,160.74,0,0,0,302.56,164.52Z" transform="translate(-46.84 -74.89)"/><path d="M369.52,148.32c-.12.6-2.88,12-10.92,12-6.48,0-13.68-6.72-13.68-19.32,0-22.19,12.6-32.63,23.16-32.63,6,0,10.67,4,10.67,9.72,0,1.92-3.24,3.6-4.67,3.6a.82.82,0,0,1-.85-.84c0-.84.25-1.44.25-3,0-3.72-2.28-5.4-5.52-5.4-6.24,0-14.16,9-14.16,28.55,0,9,2.88,14.4,6.6,14.4,4.44,0,7.2-10.92,8.39-18.11,1-5.64,1.33-13.32,9.84-13.32a1,1,0,0,1,1.08,1c0,1.08-3,4.68-3,16.32,0,6.35,1.08,11.15,4.56,11.15,5.64,0,10.68-14.15,10.68-14.15s.48-1.32,1.56-1.32a1.29,1.29,0,0,1,1.44,1.32,7.21,7.21,0,0,1-.36,1.67S388.23,158.4,380,158.4C372,158.4,369.75,149.16,369.52,148.32Z" transform="translate(-46.84 -74.89)"/><path d="M401.67,107.89A198.17,198.17,0,0,0,400,134.41c0,14.63,4,19.91,8.16,19.91,5.88,0,11.88-16.07,11.88-16.07s.48-1.32,1.56-1.32a1.29,1.29,0,0,1,1.44,1.32,7.21,7.21,0,0,1-.36,1.67s-7.32,20.88-17.16,20.88c-7,0-14.16-7.56-14.16-26.39a159.12,159.12,0,0,1,2.28-26.52l.85-4.32c1.31-6,3-10.92,4.91-13.92,1.2-1.92,3.6-3.36,4.92-3.36a1.2,1.2,0,0,1,1.32,1.32c0,.84-1.8,6.24-3.36,15.72Z" transform="translate(-46.84 -74.89)"/><path d="M451.35,118.57a2.24,2.24,0,0,0-2.4-2.52c-5.16,0-19.92,25.55-19.92,36.11,0,3.36.24,3.6.24,4.56,0,1.44-2,2.64-3.48,2.64-2,0-6.36-6.24-6.36-29.15,0-39.12,8.76-55.32,16.56-55.32,4.92,0,7.08,3.84,7.08,11.64,0,15.6-11.76,42.24-16,51.24.12,3.83.36,7.07.36,7.07,1.2-6.84,13.8-34.43,24.48-34.43,4.08,0,7,2.76,7,7.68,0,9.12-6.48,19.91-6.48,30.47,0,4,1.08,5.88,3,7.2.48.36,1.08.6,1.08,1.2s-.6,1.2-2.16,1.2c-5.16,0-10.68-2.76-10.68-9.84C443.67,136.33,451.35,125.65,451.35,118.57ZM427,131.05c4.56-11.76,12.36-33.84,12.36-47,0-3.36-1.08-4.92-2.88-4.92-4.44,0-9.48,24.12-9.48,49.44Z" transform="translate(-46.84 -74.89)"/><path d="M517.11,148.32c-.12.6-2.88,12-10.92,12-6.48,0-13.68-6.72-13.68-19.32,0-22.19,12.6-32.63,23.16-32.63,6,0,10.68,4,10.68,9.72,0,1.92-3.24,3.6-4.68,3.6a.82.82,0,0,1-.84-.84c0-.84.24-1.44.24-3,0-3.72-2.28-5.4-5.52-5.4-6.24,0-14.16,9-14.16,28.55,0,9,2.88,14.4,6.6,14.4,4.44,0,7.2-10.92,8.4-18.11,1-5.64,1.32-13.32,9.84-13.32a1,1,0,0,1,1.08,1c0,1.08-3,4.68-3,16.32,0,6.35,1.08,11.15,4.56,11.15,5.64,0,10.68-14.15,10.68-14.15s.48-1.32,1.56-1.32a1.29,1.29,0,0,1,1.44,1.32,7.21,7.21,0,0,1-.36,1.67s-6.36,18.48-14.64,18.48C519.63,158.4,517.35,149.16,517.11,148.32Z" transform="translate(-46.84 -74.89)"/><path d="M562.11,149.28c0-13.07,7-26,7-33.11,0-1.92-.72-3.12-2.64-3.12-5.16,0-15.36,16.32-18,31.55a38.1,38.1,0,0,0-.48,5.76c0,3,.48,4.68.48,6.12a1.51,1.51,0,0,1-1.56,1.56c-3.6,0-7.68-5.52-7.68-18.59,0-21,4.56-27.6,8.64-27.6.84,0,1.08.36,1.08,1,0,1.92-2,5.88-2,25.44,1.68-10.56,10.68-29.64,21.12-29.64,4.32,0,7.8,2.88,7.8,7.56,0,8-4.56,21.48-4.56,33,0,4.08,2,5.28,3.84,5.28,6.48,0,12.36-16.19,12.36-16.19s.48-1.32,1.56-1.32a1.29,1.29,0,0,1,1.44,1.32,7.21,7.21,0,0,1-.36,1.67s-6.72,20.28-18.6,20.28C567.15,160.2,562.11,157.56,562.11,149.28Z" transform="translate(-46.84 -74.89)"/><path d="M586.35,137.17c0-21.12,5.52-28.56,11-28.56,1,0,1.56.48,1.56,1.44,0,1.56-4.2,10-4.2,29.51,0,12.36,2.88,16,6.24,16,6.24,0,12.6-17.27,12.6-17.27s.48-1.32,1.56-1.32a1.29,1.29,0,0,1,1.44,1.32,7.21,7.21,0,0,1-.36,1.67S608.67,161,599.43,161C593.55,161,586.35,156.6,586.35,137.17Z" transform="translate(-46.84 -74.89)"/><path d="M681.39,138.25s.48-1.32,1.56-1.32a1.29,1.29,0,0,1,1.44,1.32,7.21,7.21,0,0,1-.36,1.67s-7,20.28-17.64,20.28a9.8,9.8,0,0,1-9.72-10c0-12.83,6.24-18.59,6.24-27.59,0-1.8-1-3.6-3.12-3.48-3.72.12-9.12,6.12-11.64,13.8-2.52,7.91-2.76,16.07-2.76,23.39,0,1.08-.48,1.68-1.56,1.68-6.24,0-5.52-3.36-5.52-31.19,0-9.48,0-13.92-3.36-13.92-4.8,0-9.72,14.28-12.24,29.15a74.54,74.54,0,0,0-1.2,13.32c0,1.8-2.4,2.64-3.6,2.64-2,0-4.92-9-4.92-22.43,0-17.4,1.92-23.76,7.44-23.76,1,0,1.56.48,1.56,1.44,0,1.56-1.68,5.64-1.68,25.2,2.4-13.92,6.48-31.08,16.92-31.08,6.6,0,9.12,6.12,9.12,15a40.59,40.59,0,0,1-.36,6.48c1.92-4.32,9.24-15.24,16.92-15.24,4.92,0,7.44,3.72,7.44,8.16,0,8.52-5.4,17.64-5.4,27.95,0,2.76,1.56,4.68,4.08,4.68C675.51,154.44,681.39,138.25,681.39,138.25Z" transform="translate(-46.84 -74.89)"/><path d="M705.39,148.32c-.12.6-2.88,12-10.92,12-6.48,0-13.68-6.72-13.68-19.32,0-22.19,12.6-32.63,23.16-32.63,6,0,10.68,4,10.68,9.72,0,1.92-3.24,3.6-4.68,3.6a.82.82,0,0,1-.84-.84c0-.84.24-1.44.24-3,0-3.72-2.28-5.4-5.52-5.4-6.24,0-14.16,9-14.16,28.55,0,9,2.88,14.4,6.6,14.4,4.44,0,7.2-10.92,8.4-18.11,1-5.64,1.32-13.32,9.84-13.32a1,1,0,0,1,1.08,1c0,1.08-3,4.68-3,16.32,0,6.35,1.08,11.15,4.56,11.15,5.64,0,10.68-14.15,10.68-14.15s.48-1.32,1.56-1.32a1.29,1.29,0,0,1,1.44,1.32,7.21,7.21,0,0,1-.36,1.67s-6.36,18.48-14.64,18.48C707.91,158.4,705.63,149.16,705.39,148.32Z" transform="translate(-46.84 -74.89)"/><path d="M737.55,107.89a198.17,198.17,0,0,0-1.68,26.52c0,14.63,4,19.91,8.16,19.91,5.88,0,11.88-16.07,11.88-16.07s.48-1.32,1.56-1.32a1.29,1.29,0,0,1,1.44,1.32,7.21,7.21,0,0,1-.36,1.67s-7.32,20.88-17.16,20.88c-7,0-14.16-7.56-14.16-26.39a158.06,158.06,0,0,1,2.28-26.52l.84-4.32c1.32-6,3-10.92,4.92-13.92,1.2-1.92,3.6-3.36,4.92-3.36a1.2,1.2,0,0,1,1.32,1.32c0,.84-1.8,6.24-3.36,15.72Z" transform="translate(-46.84 -74.89)"/><path d="M754.83,137.17c0-21.12,5.52-28.56,11-28.56,1,0,1.56.48,1.56,1.44,0,1.56-4.2,10-4.2,29.51,0,12.36,2.88,16,6.24,16,6.24,0,12.6-17.27,12.6-17.27s.48-1.32,1.56-1.32a1.29,1.29,0,0,1,1.44,1.32,7.21,7.21,0,0,1-.36,1.67S777.15,161,767.91,161C762,161,754.83,156.6,754.83,137.17Z" transform="translate(-46.84 -74.89)"/><path d="M784.71,125.41a9.38,9.38,0,0,1-1.08-4.08c0-6.6,7.32-13.2,17.27-13.2,10.68,0,18.48,7.2,18.48,26.16,0,17.39-10,25.55-19.2,25.55-11.51,0-18.47-8.16-18.47-22.07A25.93,25.93,0,0,1,784.71,125.41Zm15.59,29.75c6.48,0,11.28-6.24,11.28-24.35,0-14.16-4.92-18.72-10.44-18.72-6,0-9.6,5.64-9.6,9.72,0,5.52,3.37,5.64,3.37,7.08,0,.84-.61,1.2-1.92,1.2a8.29,8.29,0,0,1-3-.48,43.55,43.55,0,0,0-.24,6C789.75,148.8,793.58,155.16,800.3,155.16Z" transform="translate(-46.84 -74.89)"/><path d="M855,116.17c0-1.92-.72-3.12-2.64-3.12-6.12,0-18.47,22.44-18.47,37.31,0,3,.48,4.68.48,6.12a1.51,1.51,0,0,1-1.56,1.56c-1.56,0-4.32-1.44-5.64-2.88-1.68-1.92-2-5.16-2-19.43,0-21.24,4.56-25.08,8.64-25.08a1.23,1.23,0,0,1,1.32,1.2c0,1.92-2.28,6.84-2.28,26.4,1.68-10.56,10.67-29.64,21.11-29.64,4.32,0,7.8,2.88,7.8,7.56,0,8-4.32,20.87-4.32,32.39,0,4,1.08,5.88,3,7.2.48.36,1.08.6,1.08,1.2s-.6,1.2-2.16,1.2c-6.47,0-10.67-3.24-10.67-11.52C848.67,135.85,855,122.05,855,116.17Z" transform="translate(-46.84 -74.89)"/></g><path id="横棒1" class="cls-1" d="M55.12,108a53,53,0,0,1-5.88-.6c-1.56-.24-2.4-2.88-2.4-3.72a.57.57,0,0,1,.6-.6,46.52,46.52,0,0,0,8.52.6l7.8-.24c9.24-.6,11.64-2.64,12.6-2.64a.88.88,0,0,1,1,1c0,1.8-2.52,4.92-5.52,5.52a43.86,43.86,0,0,1-8.64.72Z" transform="translate(-46.84 -74.89)"/><path id="横棒2" class="cls-1" d="M393.63,107.89a53,53,0,0,1-5.87-.6c-1.56-.24-2.4-2.88-2.4-3.72a.57.57,0,0,1,.6-.6,46.52,46.52,0,0,0,8.52.6l7.79-.24c9.24-.6,11.64-2.64,12.6-2.64a.88.88,0,0,1,1,1c0,1.8-2.52,4.92-5.52,5.52a43.86,43.86,0,0,1-8.64.72Z" transform="translate(-46.84 -74.89)"/><path id="横棒3" class="cls-1" d="M729.51,107.89a53,53,0,0,1-5.88-.6c-1.56-.24-2.4-2.88-2.4-3.72a.57.57,0,0,1,.6-.6,46.52,46.52,0,0,0,8.52.6l7.8-.24c9.24-.6,11.64-2.64,12.6-2.64a.88.88,0,0,1,1,1c0,1.8-2.52,4.92-5.52,5.52a43.86,43.86,0,0,1-8.64.72Z" transform="translate(-46.84 -74.89)"/><path id="ポチ1" class="cls-2" d="M144.28,83.53c2.52,0,4.32,2.16,4.32,5,0,3.72-2.4,7.68-6,7.68-2.76,0-4.44-2.4-4.44-5.16C138.16,87.37,140.44,83.53,144.28,83.53Z" transform="translate(-46.84 -74.89)"/><path id="ポチ2" class="cls-2" d="M228.88,83.53c2.52,0,4.32,2.16,4.32,5,0,3.72-2.4,7.68-6,7.68-2.76,0-4.44-2.4-4.44-5.16C222.76,87.37,225,83.53,228.88,83.53Z" transform="translate(-46.84 -74.89)"/><path id="ポチ3" class="cls-2" d="M601.11,83.53c2.52,0,4.32,2.16,4.32,5,0,3.72-2.4,7.68-6,7.68-2.76,0-4.44-2.4-4.44-5.16C595,87.37,597.27,83.53,601.11,83.53Z" transform="translate(-46.84 -74.89)"/><path id="ポチ4" class="cls-2" d="M769.59,83.53c2.52,0,4.32,2.16,4.32,5,0,3.72-2.4,7.68-6,7.68-2.76,0-4.44-2.4-4.44-5.16C763.47,87.37,765.75,83.53,769.59,83.53Z" transform="translate(-46.84 -74.89)"/></svg>